<svg width="72" height="80" viewBox="0 0 72 80" fill="none" xmlns="http://www.w3.org/2000/svg">
<g filter="url(#filter0_dd_1_51)">
<circle cx="36" cy="40" r="26" fill="#0077B5" fill-opacity="0.94902" shape-rendering="crispEdges"/>
</g>
<path d="M41 31.5C41 31.3674 40.9473 31.2402 40.8536 31.1464C40.7598 31.0527 40.6326 31 40.5 31H38C36.7411 30.9373 35.5086 31.3754 34.5717 32.2186C33.6348 33.0618 33.0698 34.2415 33 35.5V38.2H30.5C30.3674 38.2 30.2402 38.2527 30.1464 38.3464C30.0527 38.4402 30 38.5674 30 38.7V41.3C30 41.4326 30.0527 41.5598 30.1464 41.6535C30.2402 41.7473 30.3674 41.8 30.5 41.8H33V48.5C33 48.6326 33.0527 48.7598 33.1464 48.8535C33.2402 48.9473 33.3674 49 33.5 49H36.5C36.6326 49 36.7598 48.9473 36.8536 48.8535C36.9473 48.7598 37 48.6326 37 48.5V41.8H39.62C39.7312 41.8016 39.8397 41.7661 39.9285 41.6991C40.0172 41.6321 40.0811 41.5374 40.11 41.43L40.83 38.83C40.8499 38.7561 40.8526 38.6787 40.8378 38.6036C40.8231 38.5285 40.7913 38.4578 40.7449 38.397C40.6985 38.3361 40.6388 38.2867 40.5704 38.2526C40.5019 38.2184 40.4265 38.2004 40.35 38.2H37V35.5C37.0249 35.2525 37.1411 35.0231 37.326 34.8567C37.5109 34.6903 37.7512 34.5987 38 34.6H40.5C40.6326 34.6 40.7598 34.5473 40.8536 34.4535C40.9473 34.3598 41 34.2326 41 34.1V31.5Z" fill="white"/>
<defs>
<filter id="filter0_dd_1_51" x="0" y="0" width="72" height="80" filterUnits="userSpaceOnUse" color-interpolation-filters="sRGB">
<feFlood flood-opacity="0" result="BackgroundImageFix"/>
<feColorMatrix in="SourceAlpha" type="matrix" values="0 0 0 0 0 0 0 0 0 0 0 0 0 0 0 0 0 0 127 0" result="hardAlpha"/>
<feOffset dy="4"/>
<feGaussianBlur stdDeviation="5"/>
<feComposite in2="hardAlpha" operator="out"/>
<feColorMatrix type="matrix" values="0 0 0 0 0.321569 0 0 0 0 0.74902 0 0 0 0 0.572549 0 0 0 0.25 0"/>
<feBlend mode="normal" in2="BackgroundImageFix" result="effect1_dropShadow_1_51"/>
<feColorMatrix in="SourceAlpha" type="matrix" values="0 0 0 0 0 0 0 0 0 0 0 0 0 0 0 0 0 0 127 0" result="hardAlpha"/>
<feOffset dy="-4"/>
<feGaussianBlur stdDeviation="5"/>
<feComposite in2="hardAlpha" operator="out"/>
<feColorMatrix type="matrix" values="0 0 0 0 0.321569 0 0 0 0 0.74902 0 0 0 0 0.572549 0 0 0 0.25 0"/>
<feBlend mode="normal" in2="effect1_dropShadow_1_51" result="effect2_dropShadow_1_51"/>
<feBlend mode="normal" in="SourceGraphic" in2="effect2_dropShadow_1_51" result="shape"/>
</filter>
</defs>
</svg>
