<svg width="72" height="80" viewBox="0 0 72 80" fill="none" xmlns="http://www.w3.org/2000/svg">
<g filter="url(#filter0_dd_1_55)">
<circle cx="36" cy="40" r="26" fill="#0077B5"/>
</g>
<path d="M30.94 33C30.9397 33.5304 30.7288 34.039 30.3535 34.4139C29.9782 34.7888 29.4694 34.9993 28.939 34.999C28.4086 34.9987 27.9 34.7878 27.5251 34.4125C27.1502 34.0372 26.9397 33.5284 26.94 32.998C26.9403 32.4676 27.1512 31.959 27.5265 31.5841C27.9018 31.2092 28.4106 30.9987 28.941 30.999C29.4714 30.9993 29.98 31.2102 30.3549 31.5855C30.7298 31.9607 30.9403 32.4696 30.94 33ZM31 36.48H27V49H31V36.48ZM37.32 36.48H33.34V49H37.28V42.43C37.28 38.77 42.05 38.43 42.05 42.43V49H46V41.07C46 34.9 38.94 35.13 37.28 38.16L37.32 36.48Z" fill="white"/>
<defs>
<filter id="filter0_dd_1_55" x="0" y="0" width="72" height="80" filterUnits="userSpaceOnUse" color-interpolation-filters="sRGB">
<feFlood flood-opacity="0" result="BackgroundImageFix"/>
<feColorMatrix in="SourceAlpha" type="matrix" values="0 0 0 0 0 0 0 0 0 0 0 0 0 0 0 0 0 0 127 0" result="hardAlpha"/>
<feOffset dy="4"/>
<feGaussianBlur stdDeviation="5"/>
<feComposite in2="hardAlpha" operator="out"/>
<feColorMatrix type="matrix" values="0 0 0 0 0.321569 0 0 0 0 0.74902 0 0 0 0 0.572549 0 0 0 0.25 0"/>
<feBlend mode="normal" in2="BackgroundImageFix" result="effect1_dropShadow_1_55"/>
<feColorMatrix in="SourceAlpha" type="matrix" values="0 0 0 0 0 0 0 0 0 0 0 0 0 0 0 0 0 0 127 0" result="hardAlpha"/>
<feOffset dy="-4"/>
<feGaussianBlur stdDeviation="5"/>
<feComposite in2="hardAlpha" operator="out"/>
<feColorMatrix type="matrix" values="0 0 0 0 0.321569 0 0 0 0 0.74902 0 0 0 0 0.572549 0 0 0 0.25 0"/>
<feBlend mode="normal" in2="effect1_dropShadow_1_55" result="effect2_dropShadow_1_55"/>
<feBlend mode="normal" in="SourceGraphic" in2="effect2_dropShadow_1_55" result="shape"/>
</filter>
</defs>
</svg>
