<svg width="72" height="80" viewBox="0 0 72 80" fill="none" xmlns="http://www.w3.org/2000/svg">
<g filter="url(#filter0_dd_1_59)">
<circle cx="36" cy="40" r="26" fill="#52BF90"/>
</g>
<path d="M43.05 32.91C42.1331 31.9841 41.041 31.25 39.8375 30.7504C38.634 30.2508 37.3431 29.9957 36.04 30C30.58 30 26.13 34.45 26.13 39.91C26.13 41.66 26.59 43.36 27.45 44.86L26.05 50L31.3 48.62C32.75 49.41 34.38 49.83 36.04 49.83C41.5 49.83 45.95 45.38 45.95 39.92C45.95 37.27 44.92 34.78 43.05 32.91ZM36.04 48.15C34.56 48.15 33.11 47.75 31.84 47L31.54 46.82L28.42 47.64L29.25 44.6L29.05 44.29C28.2275 42.9771 27.7909 41.4593 27.79 39.91C27.79 35.37 31.49 31.67 36.03 31.67C38.23 31.67 40.3 32.53 41.85 34.09C42.6176 34.8539 43.2259 35.7625 43.6396 36.7633C44.0533 37.7641 44.2642 38.8371 44.26 39.92C44.28 44.46 40.58 48.15 36.04 48.15ZM40.56 41.99C40.31 41.87 39.09 41.27 38.87 41.18C38.64 41.1 38.48 41.06 38.31 41.3C38.14 41.55 37.67 42.11 37.53 42.27C37.39 42.44 37.24 42.46 36.99 42.33C36.74 42.21 35.94 41.94 35 41.1C34.26 40.44 33.77 39.63 33.62 39.38C33.48 39.13 33.6 39 33.73 38.87C33.84 38.76 33.98 38.58 34.1 38.44C34.22 38.3 34.27 38.19 34.35 38.03C34.43 37.86 34.39 37.72 34.33 37.6C34.27 37.48 33.77 36.26 33.57 35.76C33.37 35.28 33.16 35.34 33.01 35.33H32.53C32.36 35.33 32.1 35.39 31.87 35.64C31.65 35.89 31.01 36.49 31.01 37.71C31.01 38.93 31.9 40.11 32.02 40.27C32.14 40.44 33.77 42.94 36.25 44.01C36.84 44.27 37.3 44.42 37.66 44.53C38.25 44.72 38.79 44.69 39.22 44.63C39.7 44.56 40.69 44.03 40.89 43.45C41.1 42.87 41.1 42.38 41.03 42.27C40.96 42.16 40.81 42.11 40.56 41.99Z" fill="white"/>
<defs>
<filter id="filter0_dd_1_59" x="0" y="0" width="72" height="80" filterUnits="userSpaceOnUse" color-interpolation-filters="sRGB">
<feFlood flood-opacity="0" result="BackgroundImageFix"/>
<feColorMatrix in="SourceAlpha" type="matrix" values="0 0 0 0 0 0 0 0 0 0 0 0 0 0 0 0 0 0 127 0" result="hardAlpha"/>
<feOffset dy="4"/>
<feGaussianBlur stdDeviation="5"/>
<feComposite in2="hardAlpha" operator="out"/>
<feColorMatrix type="matrix" values="0 0 0 0 0.321569 0 0 0 0 0.74902 0 0 0 0 0.572549 0 0 0 0.25 0"/>
<feBlend mode="normal" in2="BackgroundImageFix" result="effect1_dropShadow_1_59"/>
<feColorMatrix in="SourceAlpha" type="matrix" values="0 0 0 0 0 0 0 0 0 0 0 0 0 0 0 0 0 0 127 0" result="hardAlpha"/>
<feOffset dy="-4"/>
<feGaussianBlur stdDeviation="5"/>
<feComposite in2="hardAlpha" operator="out"/>
<feColorMatrix type="matrix" values="0 0 0 0 0.321569 0 0 0 0 0.74902 0 0 0 0 0.572549 0 0 0 0.25 0"/>
<feBlend mode="normal" in2="effect1_dropShadow_1_59" result="effect2_dropShadow_1_59"/>
<feBlend mode="normal" in="SourceGraphic" in2="effect2_dropShadow_1_59" result="shape"/>
</filter>
</defs>
</svg>
